<?xml version="1.0" standalone="no"?>
<!DOCTYPE svg PUBLIC "-//W3C//DTD SVG 20010904//EN"
 "http://www.w3.org/TR/2001/REC-SVG-20010904/DTD/svg10.dtd">
<svg version="1.0" xmlns="http://www.w3.org/2000/svg"
 width="2330.000000pt" height="2330.000000pt" viewBox="0 0 2330.000000 2330.000000"
 preserveAspectRatio="xMidYMid meet">
<metadata>
Created by potrace 1.14, written by Peter Selinger 2001-2017
</metadata>
<g transform="translate(0.000000,2330.000000) scale(0.100000,-0.100000)"
fill="#000000" stroke="none">
<path d="M11258 23295 c-2 -1 -77 -6 -168 -9 -91 -4 -181 -9 -200 -11 -19 -2
-75 -6 -125 -10 -49 -3 -106 -8 -125 -10 -19 -2 -66 -6 -105 -9 -38 -4 -81 -8
-95 -11 -14 -2 -54 -7 -90 -10 -36 -3 -76 -7 -90 -9 -14 -3 -47 -7 -75 -10
-64 -8 -135 -18 -159 -22 -11 -2 -54 -8 -96 -14 -42 -6 -87 -13 -100 -15 -13
-3 -42 -7 -64 -11 -22 -3 -43 -7 -46 -9 -3 -1 -32 -6 -65 -10 -32 -3 -62 -8
-65 -10 -3 -2 -21 -6 -40 -9 -56 -9 -358 -71 -444 -91 -171 -39 -493 -122
-611 -157 -306 -89 -592 -184 -875 -288 -47 -17 -98 -36 -115 -42 -16 -6 -34
-14 -40 -18 -5 -4 -28 -13 -50 -20 -41 -13 -317 -129 -416 -173 -30 -14 -101
-46 -159 -72 -153 -68 -670 -329 -705 -354 -5 -5 -46 -27 -90 -51 -86 -45
-297 -168 -355 -205 -19 -12 -84 -53 -145 -90 -332 -206 -681 -450 -1010 -709
-136 -107 -364 -294 -396 -325 -9 -9 -29 -27 -45 -40 -130 -108 -401 -360
-583 -542 -284 -285 -582 -612 -771 -848 -19 -24 -39 -48 -45 -55 -78 -88
-370 -475 -503 -665 -56 -80 -208 -309 -284 -426 -45 -70 -239 -390 -275 -455
-11 -19 -55 -98 -98 -175 -83 -148 -311 -595 -359 -705 -27 -60 -60 -134 -106
-235 -10 -22 -32 -74 -50 -115 -17 -41 -35 -84 -40 -95 -5 -11 -21 -49 -35
-85 -14 -36 -30 -74 -35 -85 -13 -29 -121 -316 -130 -345 -5 -14 -34 -97 -64
-185 -81 -229 -224 -705 -271 -902 -3 -10 -14 -56 -26 -103 -11 -47 -22 -92
-24 -100 -2 -8 -11 -46 -20 -85 -9 -38 -18 -79 -21 -90 -2 -11 -8 -40 -14 -65
-5 -25 -12 -57 -15 -72 -3 -16 -7 -40 -10 -55 -19 -94 -45 -233 -50 -263 -3
-19 -8 -42 -10 -50 -2 -8 -7 -35 -10 -60 -3 -25 -8 -52 -10 -60 -2 -8 -7 -33
-10 -55 -3 -22 -12 -83 -20 -136 -8 -53 -17 -118 -20 -145 -3 -27 -8 -60 -10
-74 -2 -14 -7 -50 -10 -80 -7 -66 -15 -136 -20 -170 -2 -14 -7 -61 -10 -105
-4 -44 -8 -96 -10 -115 -2 -19 -6 -75 -10 -125 -3 -49 -8 -107 -10 -127 -26
-262 -27 -1202 0 -1528 2 -25 6 -83 9 -130 4 -47 9 -107 11 -135 3 -27 7 -72
9 -100 10 -110 17 -181 21 -205 6 -37 14 -99 20 -152 3 -26 7 -62 10 -80 2
-18 7 -51 10 -73 3 -22 7 -51 10 -65 2 -14 7 -47 10 -74 3 -27 15 -101 26
-165 19 -111 22 -129 34 -196 74 -409 213 -964 347 -1385 16 -52 31 -99 33
-105 1 -5 4 -17 7 -25 3 -8 23 -64 43 -125 124 -366 269 -732 435 -1095 111
-243 350 -717 406 -802 13 -21 24 -40 24 -44 0 -8 139 -246 248 -424 103 -168
350 -542 416 -630 23 -30 49 -68 59 -83 10 -16 25 -36 32 -45 8 -9 43 -55 77
-102 165 -222 444 -567 575 -710 17 -19 40 -45 51 -58 17 -19 115 -127 205
-226 152 -166 574 -576 768 -746 191 -168 222 -194 272 -233 28 -23 54 -44 57
-48 27 -34 549 -431 695 -529 28 -19 56 -40 63 -47 7 -7 17 -13 22 -13 5 0 15
-6 22 -13 12 -12 260 -178 300 -202 10 -5 91 -55 180 -111 168 -104 384 -229
523 -304 44 -24 85 -46 90 -50 14 -11 474 -240 570 -285 317 -146 733 -315
1020 -415 83 -29 159 -56 170 -61 34 -14 454 -143 535 -164 8 -2 67 -18 130
-35 63 -18 122 -33 130 -35 8 -2 62 -16 120 -30 58 -15 112 -28 120 -30 180
-41 427 -94 515 -109 17 -3 40 -8 51 -10 12 -2 39 -7 60 -10 22 -4 64 -11 94
-16 30 -5 75 -12 100 -15 24 -4 47 -8 50 -10 3 -2 30 -6 60 -9 30 -4 66 -8 80
-10 14 -2 46 -7 71 -10 25 -4 57 -9 70 -11 13 -2 49 -6 79 -9 51 -5 74 -8 190
-21 109 -13 183 -20 335 -31 44 -3 100 -7 125 -9 341 -27 1122 -27 1510 0 36
3 97 7 135 10 39 2 94 7 123 10 28 3 78 8 110 11 31 3 71 7 87 9 17 2 57 7 90
10 33 3 71 7 85 10 14 2 50 7 81 10 31 3 65 7 75 9 11 2 42 7 69 10 28 4 61 9
75 11 41 6 283 46 310 51 14 2 41 7 60 10 19 3 65 12 102 20 37 7 82 16 100
19 18 3 40 8 48 10 8 2 31 7 50 10 19 3 51 10 70 15 19 5 46 11 60 14 116 20
568 138 800 207 123 37 534 171 570 186 8 3 20 7 25 9 31 8 412 155 500 193
11 5 65 28 120 51 379 161 754 345 1125 553 407 228 787 473 1190 767 114 83
357 269 415 319 17 14 51 42 75 61 49 40 187 156 205 173 7 7 25 23 41 36 36
30 171 149 200 176 12 11 48 44 80 74 33 30 138 132 234 226 683 670 1233
1357 1747 2181 26 41 199 330 209 349 6 11 31 56 56 100 105 187 307 581 377
735 19 41 49 105 67 143 18 37 30 67 27 67 -3 0 -1 6 5 12 17 22 173 396 249
598 45 120 134 365 137 380 3 8 25 78 51 155 92 278 265 913 299 1095 2 14 12
59 21 100 9 41 18 85 21 98 2 12 6 34 9 50 43 220 86 468 101 582 7 56 14 104
19 129 2 12 7 52 11 89 3 36 7 73 9 82 4 23 14 108 20 170 6 63 15 149 20 200
2 19 7 80 11 135 3 55 8 116 10 135 25 263 26 1149 0 1515 -2 22 -6 87 -11
145 -4 58 -8 119 -10 135 -2 17 -7 59 -10 95 -7 75 -36 330 -50 435 -26 192
-75 490 -105 645 -6 30 -13 66 -16 80 -4 20 -19 97 -30 145 -27 129 -81 361
-99 430 -101 385 -155 566 -261 885 -61 180 -164 460 -226 610 -21 52 -40 100
-42 105 -1 6 -12 32 -24 59 -12 27 -22 50 -22 52 0 13 -188 422 -280 608 -184
373 -330 635 -593 1061 -90 146 -472 704 -496 725 -3 3 -39 49 -79 103 -41 54
-80 106 -87 115 -8 10 -62 78 -121 152 -60 74 -113 140 -119 146 -5 6 -28 32
-50 59 -40 48 -105 125 -115 135 -3 3 -37 41 -75 85 -221 252 -530 566 -821
835 -121 112 -287 259 -330 292 -16 12 -31 25 -34 29 -8 10 -175 146 -305 250
-109 86 -168 131 -390 294 -91 67 -307 216 -415 286 -219 143 -260 169 -267
169 -3 0 -14 6 -22 14 -18 15 -369 223 -471 278 -36 19 -92 50 -125 68 -102
56 -612 309 -635 315 -3 1 -36 16 -75 34 -76 35 -364 159 -385 166 -3 1 -16 6
-30 12 -45 20 -203 81 -345 133 -647 238 -1300 415 -1980 535 -82 15 -161 28
-175 30 -14 2 -54 8 -90 14 -36 6 -87 13 -115 16 -27 3 -59 8 -70 10 -11 2
-42 7 -70 10 -27 3 -64 8 -81 10 -17 2 -57 7 -90 10 -32 3 -70 8 -84 10 -14 2
-56 7 -95 10 -38 3 -90 8 -115 10 -102 10 -160 15 -255 21 -55 3 -125 8 -155
10 -67 5 -987 14 -992 9z"/>
</g>
</svg>
